<svg xmlns="http://www.w3.org/2000/svg" viewBox="0 0 512 512">
<defs><linearGradient id="g" x1="0" y1="0" x2="1" y2="1"><stop stop-color="#ff5d9e"/><stop offset="1" stop-color="#8c62ff"/></linearGradient><filter id="s"><feDropShadow dx="0" dy="16" stdDeviation="18" flood-opacity=".28"/></filter></defs>
<rect width="512" height="512" rx="120" fill="#2a0c36"/><circle cx="110" cy="92" r="155" fill="#ff5d9e" opacity=".22"/><circle cx="430" cy="430" r="190" fill="#9b6cff" opacity=".25"/>
<path filter="url(#s)" fill="url(#g)" d="M256 421S72 317 72 174c0-70 51-119 117-119 38 0 69 18 87 47 18-29 49-47 87-47 66 0 117 49 117 119 0 143-184 247-184 247z"/>
<circle cx="190" cy="205" r="24" fill="white"/><circle cx="322" cy="205" r="24" fill="white"/><path d="M180 292c42 48 110 48 152 0" fill="none" stroke="white" stroke-width="24" stroke-linecap="round"/>
</svg>
